<svg width="319" height="126" viewBox="0 0 319 126" fill="none" xmlns="http://www.w3.org/2000/svg">
<mask id="path-1-inside-1_59_1765" fill="white">
<path d="M0 0H319V126H0V0Z"/>
</mask>
<path d="M0 0H319V126H0V0Z" fill="white"/>
<path d="M319 125.7H0V126.3H319V125.7Z" fill="#9DA1B4" mask="url(#path-1-inside-1_59_1765)"/>
<rect x="12" y="12" width="45" height="16" rx="4" fill="#C4C7D2"/>
<path d="M23.6208 15.6407V17.651H24.9132V18.5844H23.6208V20.5332H22.4823V15.6407H23.6208ZM16.2872 19.7947C18.6052 19.369 19.7078 18.3639 19.8412 17.1895H16.7282V16.2869H21.1182C21.1079 18.6818 19.5591 20.1486 16.7693 20.7076L16.2872 19.7947ZM17.5898 24.8V20.9127H23.6516V21.7538H18.7386V22.4307H23.5593V23.2513H18.7386V23.9487H23.867V24.8H17.5898ZM33.0981 15.6407V24.9231H31.9494V15.6407H33.0981ZM25.6825 19.5896C25.6773 17.5895 26.6979 16.3176 28.1031 16.3176C29.4929 16.3176 30.5186 17.5895 30.5237 19.5896C30.5186 21.605 29.4929 22.8717 28.1031 22.8717C26.6979 22.8717 25.6773 21.605 25.6825 19.5896ZM26.7799 19.5896C26.7799 21.0153 27.3184 21.8409 28.1031 21.8461C28.8826 21.8409 29.4159 21.0153 29.4159 19.5896C29.4159 18.1741 28.8826 17.3433 28.1031 17.3433C27.3184 17.3433 26.7799 18.1741 26.7799 19.5896ZM38.9856 17.1177V18.0305H34.4418V17.1177H36.1649V15.9074H37.2932V17.1177H38.9856ZM34.7085 20.6768C34.6982 19.4152 35.5547 18.5177 36.7291 18.5228C37.9086 18.5177 38.7497 19.4152 38.7497 20.6768C38.7497 21.964 37.9086 22.8615 36.7291 22.8615C35.5547 22.8615 34.6982 21.964 34.7085 20.6768ZM35.7136 20.6768C35.7085 21.4255 36.129 21.8922 36.7291 21.8871C37.324 21.8922 37.7445 21.4255 37.7445 20.6768C37.7445 19.9485 37.324 19.4665 36.7291 19.4665C36.129 19.4665 35.7085 19.9485 35.7136 20.6768ZM39.3753 24.4923V15.8356H40.442V19.4562H41.3446V15.6407H42.4319V24.9129H41.3446V20.3793H40.442V24.4923H39.3753ZM52.0118 22.8512V23.7846H43.5396V22.8512H45.4987V20.5075C44.7602 20.0819 44.314 19.4152 44.3191 18.5946C44.314 17.1177 45.7602 16.1433 47.7552 16.1433C49.7604 16.1433 51.2168 17.1177 51.2117 18.5946C51.2168 19.4049 50.7809 20.0562 50.063 20.4819V22.8512H52.0118ZM45.4371 18.5946C45.432 19.5434 46.3705 20.1486 47.7552 20.1434C49.1347 20.1486 50.0937 19.5434 50.0937 18.5946C50.0937 17.6305 49.1347 17.0407 47.7552 17.0459C46.3705 17.0407 45.432 17.6305 45.4371 18.5946ZM46.6269 22.8512H48.9039V20.9178C48.5501 20.9947 48.1654 21.0358 47.7552 21.0358C47.3551 21.0358 46.9756 20.9947 46.6269 20.9229V22.8512Z" fill="white"/>
<path d="M16.1836 40.5762V41.5605H14.625V45.8672C14.6182 46.8174 15.0967 46.9746 15.5957 46.9746C15.8076 46.9746 16.1221 46.9541 16.293 46.9473V48.041C16.1084 48.0684 15.8213 48.0957 15.4727 48.0957C14.4814 48.0957 13.4424 47.4805 13.4355 46.168V41.5605H12.3145V40.5762H13.4355V38.7988H14.625V40.5762H16.1836ZM20.7363 48.1504C18.5898 48.1572 17.2637 46.626 17.2637 44.3496C17.2637 42.0664 18.6104 40.4805 20.627 40.4805C22.1855 40.4805 23.833 41.4375 23.8262 44.1855V44.6777H18.4395C18.501 46.25 19.417 47.1113 20.7363 47.1113C21.625 47.1113 22.1855 46.7217 22.459 46.2637H23.7168C23.3682 47.3916 22.2676 48.1572 20.7363 48.1504ZM18.4463 43.6797H22.6367C22.6299 42.4424 21.8506 41.5195 20.627 41.5195C19.3418 41.5195 18.5283 42.5312 18.4463 43.6797ZM26.0547 40.5762L27.8047 43.5977L29.5684 40.5762H30.9219L28.5293 44.2812L30.9219 48H29.582L27.8047 45.1289L26.0547 48H24.7012L27.0391 44.2812L24.7012 40.5762H26.0547ZM35.584 40.5762V41.5605H34.0254V45.8672C34.0186 46.8174 34.4971 46.9746 34.9961 46.9746C35.208 46.9746 35.5225 46.9541 35.6934 46.9473V48.041C35.5088 48.0684 35.2217 48.0957 34.873 48.0957C33.8818 48.0957 32.8428 47.4805 32.8359 46.168V41.5605H31.7148V40.5762H32.8359V38.7988H34.0254V40.5762H35.584ZM37.9355 48.082C37.457 48.0752 37.0469 47.6787 37.0605 47.1934C37.0469 46.7148 37.457 46.3184 37.9355 46.3184C38.4209 46.3184 38.8174 46.7148 38.8105 47.1934C38.8174 47.6787 38.4209 48.0752 37.9355 48.082ZM40.6152 47.1934C40.6016 46.7148 41.0117 46.3184 41.4902 46.3184C41.9756 46.3184 42.3721 46.7148 42.3652 47.1934C42.3721 47.6787 41.9756 48.0752 41.4902 48.082C41.0117 48.0752 40.6016 47.6787 40.6152 47.1934ZM44.1699 47.1934C44.1562 46.7148 44.5664 46.3184 45.0449 46.3184C45.5303 46.3184 45.9268 46.7148 45.9199 47.1934C45.9268 47.6787 45.5303 48.0752 45.0449 48.082C44.5664 48.0752 44.1562 47.6787 44.1699 47.1934Z" fill="black"/>
<path d="M21.3332 66.4167V67.5833H13.1665V66.4167C13.1665 66.4167 13.1665 64.0833 17.2498 64.0833C21.3332 64.0833 21.3332 66.4167 21.3332 66.4167ZM19.2915 60.875C19.2915 60.4712 19.1718 60.0765 18.9474 59.7407C18.7231 59.405 18.4042 59.1433 18.0311 58.9888C17.6581 58.8342 17.2476 58.7938 16.8515 58.8726C16.4555 58.9514 16.0917 59.1458 15.8062 59.4313C15.5206 59.7169 15.3262 60.0807 15.2474 60.4767C15.1686 60.8727 15.2091 61.2833 15.3636 61.6563C15.5181 62.0294 15.7798 62.3483 16.1155 62.5726C16.4513 62.7969 16.846 62.9167 17.2498 62.9167C17.7913 62.9167 18.3106 62.7016 18.6935 62.3187C19.0764 61.9358 19.2915 61.4165 19.2915 60.875ZM21.2982 64.0833C21.6568 64.3609 21.9502 64.7136 22.1578 65.1167C22.3654 65.5198 22.4822 65.9636 22.4998 66.4167V67.5833H24.8332V66.4167C24.8332 66.4167 24.8332 64.2992 21.2982 64.0833ZM20.7498 58.8333C20.3483 58.8311 19.9556 58.9512 19.624 59.1775C19.9783 59.6726 20.1689 60.2662 20.1689 60.875C20.1689 61.4838 19.9783 62.0774 19.624 62.5725C19.9556 62.7989 20.3483 62.9189 20.7498 62.9167C21.2913 62.9167 21.8106 62.7016 22.1935 62.3187C22.5764 61.9358 22.7915 61.4165 22.7915 60.875C22.7915 60.3335 22.5764 59.8142 22.1935 59.4313C21.8106 59.0484 21.2913 58.8333 20.7498 58.8333Z" fill="#B1B4C3"/>
<path d="M31.1386 61.4305V62.169H29.9693V65.3999C29.9642 66.1128 30.3232 66.2307 30.6975 66.2307C30.8565 66.2307 31.0924 66.2154 31.2206 66.2102V67.0308C31.0822 67.0513 30.8668 67.0718 30.6052 67.0718C29.8616 67.0718 29.0821 66.6102 29.077 65.6256V62.169H28.2359V61.4305H29.077V60.0971H29.9693V61.4305H31.1386ZM34.5541 67.1128C32.9438 67.118 31.9489 65.9692 31.9489 64.2614C31.9489 62.5485 32.9592 61.3587 34.4721 61.3587C35.6413 61.3587 36.8773 62.0767 36.8722 64.1383V64.5076H32.831C32.8771 65.6871 33.5643 66.3333 34.5541 66.3333C35.2208 66.3333 35.6413 66.041 35.8465 65.6974H36.7901C36.5286 66.5436 35.7029 67.118 34.5541 67.1128ZM32.8361 63.7588H35.9798C35.9747 62.8306 35.3901 62.1383 34.4721 62.1383C33.5079 62.1383 32.8976 62.8973 32.8361 63.7588ZM38.544 61.4305L39.8569 63.6973L41.18 61.4305H42.1955L40.4005 64.2101L42.1955 67H41.1903L39.8569 64.8461L38.544 67H37.5286L39.2825 64.2101L37.5286 61.4305H38.544ZM45.693 61.4305V62.169H44.5238V65.3999C44.5186 66.1128 44.8776 66.2307 45.252 66.2307C45.411 66.2307 45.6469 66.2154 45.7751 66.2102V67.0308C45.6366 67.0513 45.4212 67.0718 45.1597 67.0718C44.4161 67.0718 43.6365 66.6102 43.6314 65.6256V62.169H42.7904V61.4305H43.6314V60.0971H44.5238V61.4305H45.693Z" fill="#B1B4C3"/>
<path d="M13.1665 87.5833C13.1665 88.575 13.9248 89.3333 14.9165 89.3333H23.0832C24.0748 89.3333 24.8332 88.575 24.8332 87.5833V82.9167H13.1665V87.5833ZM23.0832 78.8333H21.9165V78.25C21.9165 77.9 21.6832 77.6667 21.3332 77.6667C20.9832 77.6667 20.7498 77.9 20.7498 78.25V78.8333H17.2498V78.25C17.2498 77.9 17.0165 77.6667 16.6665 77.6667C16.3165 77.6667 16.0832 77.9 16.0832 78.25V78.8333H14.9165C13.9248 78.8333 13.1665 79.5917 13.1665 80.5833V81.75H24.8332V80.5833C24.8332 79.5917 24.0748 78.8333 23.0832 78.8333Z" fill="#B1B4C3"/>
<path d="M31.1386 81.4305V82.169H29.9693V85.3999C29.9642 86.1128 30.3232 86.2307 30.6975 86.2307C30.8565 86.2307 31.0924 86.2154 31.2206 86.2102V87.0308C31.0822 87.0513 30.8668 87.0718 30.6052 87.0718C29.8616 87.0718 29.0821 86.6102 29.077 85.6256V82.169H28.2359V81.4305H29.077V80.0971H29.9693V81.4305H31.1386ZM34.5541 87.1128C32.9438 87.118 31.9489 85.9692 31.9489 84.2614C31.9489 82.5485 32.9592 81.3587 34.4721 81.3587C35.6413 81.3587 36.8773 82.0767 36.8722 84.1383V84.5076H32.831C32.8771 85.6871 33.5643 86.3333 34.5541 86.3333C35.2208 86.3333 35.6413 86.041 35.8465 85.6974H36.7901C36.5286 86.5436 35.7029 87.118 34.5541 87.1128ZM32.8361 83.7588H35.9798C35.9747 82.8306 35.3901 82.1383 34.4721 82.1383C33.5079 82.1383 32.8976 82.8973 32.8361 83.7588ZM38.544 81.4305L39.8569 83.6973L41.18 81.4305H42.1955L40.4005 84.2101L42.1955 87H41.1903L39.8569 84.8461L38.544 87H37.5286L39.2825 84.2101L37.5286 81.4305H38.544ZM45.693 81.4305V82.169H44.5238V85.3999C44.5186 86.1128 44.8776 86.2307 45.252 86.2307C45.411 86.2307 45.6469 86.2154 45.7751 86.2102V87.0308C45.6366 87.0513 45.4212 87.0718 45.1597 87.0718C44.4161 87.0718 43.6365 86.6102 43.6314 85.6256V82.169H42.7904V81.4305H43.6314V80.0971H44.5238V81.4305H45.693Z" fill="#B1B4C3"/>
<path d="M15.1386 103.431V104.169H13.9693V107.4C13.9642 108.113 14.3232 108.231 14.6975 108.231C14.8565 108.231 15.0924 108.215 15.2206 108.21V109.031C15.0822 109.051 14.8668 109.072 14.6052 109.072C13.8616 109.072 13.0821 108.61 13.077 107.626V104.169H12.2359V103.431H13.077V102.097H13.9693V103.431H15.1386ZM18.5541 109.113C16.9438 109.118 15.9489 107.969 15.9489 106.261C15.9489 104.549 16.9592 103.359 18.4721 103.359C19.6413 103.359 20.8773 104.077 20.8722 106.138V106.508H16.831C16.8771 107.687 17.5643 108.333 18.5541 108.333C19.2208 108.333 19.6413 108.041 19.8465 107.697H20.7901C20.5286 108.544 19.7029 109.118 18.5541 109.113ZM16.8361 105.759H19.9798C19.9747 104.831 19.3901 104.138 18.4721 104.138C17.5079 104.138 16.8976 104.897 16.8361 105.759ZM22.544 103.431L23.8569 105.697L25.18 103.431H26.1955L24.4005 106.21L26.1955 109H25.1903L23.8569 106.846L22.544 109H21.5286L23.2825 106.21L21.5286 103.431H22.544ZM29.693 103.431V104.169H28.5238V107.4C28.5186 108.113 28.8776 108.231 29.252 108.231C29.411 108.231 29.6469 108.215 29.7751 108.21V109.031C29.6366 109.051 29.4212 109.072 29.1597 109.072C28.4161 109.072 27.6365 108.61 27.6314 107.626V104.169H26.7904V103.431H27.6314V102.097H28.5238V103.431H29.693Z" fill="#9DA1B4"/>
<path d="M269.042 103.167C269.042 102.614 269.185 102.07 269.457 101.589C269.729 101.107 270.121 100.704 270.595 100.419C271.069 100.134 271.608 99.9756 272.161 99.9602C272.714 99.9449 273.261 100.073 273.75 100.331C274.239 100.59 274.653 100.971 274.951 101.436C275.25 101.902 275.423 102.437 275.453 102.989C275.484 103.541 275.372 104.092 275.127 104.588C274.882 105.084 274.513 105.508 274.056 105.819C275.04 106.18 275.894 106.828 276.508 107.678C277.121 108.528 277.466 109.543 277.498 110.591C277.496 110.704 277.451 110.812 277.372 110.892C277.293 110.973 277.186 111.02 277.073 111.023C276.96 111.027 276.85 110.986 276.766 110.911C276.682 110.835 276.631 110.73 276.623 110.617C276.588 109.48 276.112 108.402 275.296 107.61C274.48 106.818 273.387 106.376 272.25 106.376C271.113 106.376 270.02 106.818 269.204 107.61C268.388 108.402 267.912 109.48 267.877 110.617C267.871 110.731 267.821 110.839 267.737 110.916C267.653 110.994 267.541 111.035 267.427 111.032C267.313 111.029 267.204 110.981 267.125 110.898C267.046 110.816 267.002 110.706 267.002 110.591C267.034 109.543 267.379 108.529 267.992 107.678C268.606 106.828 269.46 106.18 270.444 105.819C270.012 105.525 269.658 105.129 269.414 104.667C269.169 104.205 269.041 103.69 269.042 103.167ZM272.25 100.833C271.631 100.833 271.038 101.079 270.6 101.517C270.163 101.954 269.917 102.548 269.917 103.167C269.917 103.786 270.163 104.379 270.6 104.817C271.038 105.254 271.631 105.5 272.25 105.5C272.869 105.5 273.462 105.254 273.9 104.817C274.338 104.379 274.583 103.786 274.583 103.167C274.583 102.548 274.338 101.954 273.9 101.517C273.462 101.079 272.869 100.833 272.25 100.833ZM277.086 103.167C277 103.167 276.916 103.173 276.833 103.184C276.775 103.195 276.716 103.193 276.658 103.18C276.601 103.167 276.547 103.143 276.499 103.108C276.452 103.074 276.412 103.03 276.381 102.98C276.351 102.929 276.331 102.874 276.323 102.815C276.314 102.757 276.318 102.698 276.333 102.641C276.348 102.584 276.374 102.531 276.41 102.485C276.446 102.439 276.491 102.4 276.543 102.371C276.594 102.343 276.651 102.325 276.709 102.319C277.289 102.235 277.881 102.346 278.391 102.635C278.901 102.924 279.3 103.375 279.526 103.916C279.752 104.457 279.791 105.058 279.638 105.623C279.485 106.189 279.148 106.688 278.681 107.042C279.368 107.35 279.952 107.85 280.361 108.482C280.771 109.114 280.989 109.851 280.988 110.604C280.988 110.72 280.942 110.831 280.86 110.914C280.778 110.996 280.667 111.042 280.551 111.042C280.435 111.042 280.324 110.996 280.242 110.914C280.16 110.831 280.113 110.72 280.113 110.604C280.113 109.953 279.904 109.32 279.515 108.797C279.127 108.275 278.581 107.891 277.957 107.704L277.646 107.611V106.633L277.885 106.511C278.24 106.331 278.523 106.038 278.69 105.677C278.857 105.316 278.898 104.91 278.806 104.523C278.713 104.137 278.493 103.793 278.181 103.547C277.869 103.3 277.483 103.167 277.086 103.167Z" fill="#B1B4C3"/>
<path d="M286.323 101.574V109H285.39V102.538H285.349L283.544 103.738V102.805L285.39 101.574H286.323ZM290.959 101.225L288.559 110.118H287.759L290.149 101.225H290.959ZM294.375 109.103C292.898 109.103 291.836 108.313 291.79 107.133H292.723C292.775 107.841 293.477 108.282 294.365 108.282C295.344 108.282 296.052 107.754 296.057 106.979C296.052 106.169 295.406 105.6 294.252 105.595H293.647V104.784H294.252C295.154 104.784 295.785 104.277 295.78 103.513C295.785 102.769 295.242 102.277 294.395 102.272C293.6 102.277 292.877 102.713 292.836 103.441H291.944C291.99 102.261 293.088 101.471 294.406 101.471C295.821 101.471 296.683 102.4 296.672 103.461C296.683 104.307 296.19 104.923 295.411 105.143V105.195C296.38 105.343 296.965 106.036 296.96 106.979C296.965 108.2 295.857 109.103 294.375 109.103ZM305.524 100.712V106.118H304.714V104.682H302.58V105.461H298.396V101.41H302.58V102.2H304.714V100.712H305.524ZM299.196 104.805H301.791V102.066H299.196V104.805ZM299.442 108.108C299.437 107.01 300.601 106.379 302.498 106.385C304.391 106.379 305.555 107.01 305.555 108.108C305.555 109.195 304.391 109.81 302.498 109.81C300.601 109.81 299.437 109.195 299.442 108.108ZM300.242 108.108C300.237 108.769 301.098 109.174 302.498 109.174C303.893 109.174 304.755 108.769 304.755 108.108C304.755 107.42 303.893 107.02 302.498 107.01C301.098 107.02 300.237 107.42 300.242 108.108ZM302.58 104.005H304.714V102.866H302.58V104.005Z" fill="#B1B4C3"/>
</svg>
