<svg width="35" height="37" viewBox="0 0 35 37" fill="none" xmlns="http://www.w3.org/2000/svg">
<path d="M9.33317 11.4167V12.5833H1.1665V11.4167C1.1665 11.4167 1.1665 9.08334 5.24984 9.08334C9.33317 9.08334 9.33317 11.4167 9.33317 11.4167ZM7.2915 5.87501C7.2915 5.47121 7.17176 5.07647 6.94742 4.74072C6.72308 4.40497 6.40421 4.14329 6.03115 3.98876C5.65808 3.83423 5.24757 3.7938 4.85153 3.87257C4.45548 3.95135 4.09169 4.1458 3.80616 4.43133C3.52063 4.71687 3.32618 5.08066 3.2474 5.4767C3.16862 5.87275 3.20905 6.28326 3.36358 6.65632C3.51811 7.02939 3.7798 7.34825 4.11555 7.57259C4.4513 7.79694 4.84603 7.91668 5.24984 7.91668C5.79132 7.91668 6.31063 7.70157 6.69351 7.31869C7.0764 6.9358 7.2915 6.41649 7.2915 5.87501ZM9.29817 9.08334C9.65677 9.36086 9.9502 9.7136 10.1578 10.1167C10.3654 10.5198 10.4822 10.9636 10.4998 11.4167V12.5833H12.8332V11.4167C12.8332 11.4167 12.8332 9.29918 9.29817 9.08334ZM8.74984 3.83334C8.34832 3.83111 7.95564 3.95115 7.624 4.17751C7.97834 4.67261 8.16887 5.26618 8.16887 5.87501C8.16887 6.48384 7.97834 7.07741 7.624 7.57251C7.95564 7.79887 8.34832 7.91891 8.74984 7.91668C9.29132 7.91668 9.81063 7.70157 10.1935 7.31869C10.5764 6.9358 10.7915 6.41649 10.7915 5.87501C10.7915 5.33353 10.5764 4.81422 10.1935 4.43133C9.81063 4.04845 9.29132 3.83334 8.74984 3.83334Z" fill="#B1B4C3"/>
<path d="M19.1386 6.43054V7.16903H17.9693V10.3999C17.9642 11.1128 18.3232 11.2307 18.6975 11.2307C18.8565 11.2307 19.0924 11.2154 19.2206 11.2102V12.0308C19.0822 12.0513 18.8668 12.0718 18.6052 12.0718C17.8616 12.0718 17.0821 11.6102 17.077 10.6256V7.16903H16.2359V6.43054H17.077V5.09715H17.9693V6.43054H19.1386ZM22.5541 12.1128C20.9438 12.118 19.9489 10.9692 19.9489 9.26142C19.9489 7.54853 20.9592 6.35874 22.4721 6.35874C23.6413 6.35874 24.8773 7.07672 24.8722 9.13834V9.50759H20.831C20.8771 10.6871 21.5643 11.3333 22.5541 11.3333C23.2208 11.3333 23.6413 11.041 23.8465 10.6974H24.7901C24.5286 11.5436 23.7029 12.118 22.5541 12.1128ZM20.8361 8.75884H23.9798C23.9747 7.8306 23.3901 7.13826 22.4721 7.13826C21.5079 7.13826 20.8976 7.89727 20.8361 8.75884ZM26.544 6.43054L27.8569 8.6973L29.18 6.43054H30.1955L28.4005 9.21014L30.1955 12H29.1903L27.8569 9.84606L26.544 12H25.5286L27.2825 9.21014L25.5286 6.43054H26.544ZM33.693 6.43054V7.16903H32.5238V10.3999C32.5186 11.1128 32.8776 11.2307 33.252 11.2307C33.411 11.2307 33.6469 11.2154 33.7751 11.2102V12.0308C33.6366 12.0513 33.4212 12.0718 33.1597 12.0718C32.4161 12.0718 31.6365 11.6102 31.6314 10.6256V7.16903H30.7904V6.43054H31.6314V5.09715H32.5238V6.43054H33.693Z" fill="#B1B4C3"/>
<path d="M1.1665 32.5833C1.1665 33.575 1.92484 34.3333 2.9165 34.3333H11.0832C12.0748 34.3333 12.8332 33.575 12.8332 32.5833V27.9167H1.1665V32.5833ZM11.0832 23.8333H9.9165V23.25C9.9165 22.9 9.68317 22.6667 9.33317 22.6667C8.98317 22.6667 8.74984 22.9 8.74984 23.25V23.8333H5.24984V23.25C5.24984 22.9 5.0165 22.6667 4.6665 22.6667C4.3165 22.6667 4.08317 22.9 4.08317 23.25V23.8333H2.9165C1.92484 23.8333 1.1665 24.5917 1.1665 25.5833V26.75H12.8332V25.5833C12.8332 24.5917 12.0748 23.8333 11.0832 23.8333Z" fill="#B1B4C3"/>
<path d="M19.1386 26.4305V27.169H17.9693V30.3999C17.9642 31.1128 18.3232 31.2307 18.6975 31.2307C18.8565 31.2307 19.0924 31.2154 19.2206 31.2102V32.0308C19.0822 32.0513 18.8668 32.0718 18.6052 32.0718C17.8616 32.0718 17.0821 31.6102 17.077 30.6256V27.169H16.2359V26.4305H17.077V25.0971H17.9693V26.4305H19.1386ZM22.5541 32.1128C20.9438 32.118 19.9489 30.9692 19.9489 29.2614C19.9489 27.5485 20.9592 26.3587 22.4721 26.3587C23.6413 26.3587 24.8773 27.0767 24.8722 29.1383V29.5076H20.831C20.8771 30.6871 21.5643 31.3333 22.5541 31.3333C23.2208 31.3333 23.6413 31.041 23.8465 30.6974H24.7901C24.5286 31.5436 23.7029 32.118 22.5541 32.1128ZM20.8361 28.7588H23.9798C23.9747 27.8306 23.3901 27.1383 22.4721 27.1383C21.5079 27.1383 20.8976 27.8973 20.8361 28.7588ZM26.544 26.4305L27.8569 28.6973L29.18 26.4305H30.1955L28.4005 29.2101L30.1955 32H29.1903L27.8569 29.8461L26.544 32H25.5286L27.2825 29.2101L25.5286 26.4305H26.544ZM33.693 26.4305V27.169H32.5238V30.3999C32.5186 31.1128 32.8776 31.2307 33.252 31.2307C33.411 31.2307 33.6469 31.2154 33.7751 31.2102V32.0308C33.6366 32.0513 33.4212 32.0718 33.1597 32.0718C32.4161 32.0718 31.6365 31.6102 31.6314 30.6256V27.169H30.7904V26.4305H31.6314V25.0971H32.5238V26.4305H33.693Z" fill="#B1B4C3"/>
</svg>
