<svg width="47" height="22" viewBox="0 0 47 22" fill="none" xmlns="http://www.w3.org/2000/svg">
<path d="M2.04179 8.66668C2.0419 8.11363 2.18498 7.57 2.45713 7.08855C2.72928 6.60709 3.12127 6.20417 3.59505 5.91887C4.06883 5.63357 4.60832 5.47558 5.16115 5.46025C5.71399 5.44491 6.26141 5.57275 6.75027 5.83134C7.23914 6.08994 7.65286 6.47051 7.95129 6.93614C8.24971 7.40176 8.42271 7.93662 8.45348 8.48882C8.48426 9.04101 8.37177 9.59178 8.12693 10.0877C7.8821 10.5836 7.51323 11.0078 7.05612 11.3191C8.0405 11.6801 8.8943 12.3275 9.50766 13.1779C10.121 14.0283 10.4659 15.0427 10.4978 16.0908C10.4964 16.2038 10.4515 16.3119 10.3723 16.3925C10.2931 16.4731 10.1858 16.52 10.0729 16.5234C9.95992 16.5268 9.85003 16.4864 9.76616 16.4107C9.68228 16.3349 9.63092 16.2297 9.62279 16.117C9.58805 14.9804 9.1121 13.9019 8.2958 13.1102C7.47951 12.3184 6.38701 11.8757 5.24983 11.8757C4.11265 11.8757 3.02015 12.3184 2.20385 13.1102C1.38756 13.9019 0.911608 14.9804 0.876871 16.117C0.87103 16.2312 0.820682 16.3387 0.736614 16.4162C0.652545 16.4938 0.541441 16.5353 0.427105 16.532C0.312769 16.5286 0.204294 16.4806 0.12492 16.3983C0.0455451 16.3159 0.00158396 16.2057 0.00245408 16.0913C0.0342757 15.0432 0.379058 14.0286 0.992421 13.1781C1.60578 12.3276 2.45965 11.6802 3.44412 11.3191C3.01177 11.0249 2.65796 10.6294 2.41353 10.1671C2.1691 9.70473 2.04148 9.18964 2.04179 8.66668ZM5.25012 6.33335C4.63128 6.33335 4.03779 6.57918 3.6002 7.01676C3.16262 7.45435 2.91679 8.04784 2.91679 8.66668C2.91679 9.28552 3.16262 9.87901 3.6002 10.3166C4.03779 10.7542 4.63128 11 5.25012 11C5.86896 11 6.46245 10.7542 6.90004 10.3166C7.33762 9.87901 7.58345 9.28552 7.58345 8.66668C7.58345 8.04784 7.33762 7.45435 6.90004 7.01676C6.46245 6.57918 5.86896 6.33335 5.25012 6.33335ZM10.086 8.66668C9.99962 8.66668 9.91562 8.67251 9.83279 8.68418C9.77495 8.69453 9.71563 8.69314 9.65835 8.68007C9.60107 8.667 9.54701 8.64252 9.49939 8.6081C9.45177 8.57369 9.41158 8.53003 9.3812 8.47974C9.35082 8.42946 9.33088 8.37356 9.32257 8.3154C9.31426 8.25724 9.31775 8.198 9.33284 8.14122C9.34792 8.08443 9.37428 8.03127 9.41036 7.98489C9.44643 7.93852 9.49148 7.89989 9.54281 7.8713C9.59414 7.84272 9.6507 7.82476 9.70912 7.81851C10.2893 7.73463 10.8809 7.84604 11.3908 8.13522C11.9007 8.42439 12.3 8.87491 12.5258 9.41587C12.7516 9.95683 12.7912 10.5575 12.6382 11.1234C12.4852 11.6893 12.1484 12.1883 11.6808 12.5418C12.3682 12.8496 12.9518 13.3497 13.3613 13.9818C13.7708 14.6139 13.9886 15.351 13.9885 16.1042C13.9885 16.2202 13.9424 16.3315 13.8603 16.4135C13.7783 16.4956 13.667 16.5417 13.551 16.5417C13.4349 16.5417 13.3236 16.4956 13.2416 16.4135C13.1595 16.3315 13.1135 16.2202 13.1135 16.1042C13.1134 15.4533 12.9037 14.8197 12.5153 14.2973C12.127 13.7749 11.5807 13.3915 10.9575 13.2038L10.646 13.1105V12.1328L10.8851 12.0109C11.2396 11.8313 11.5233 11.5375 11.6903 11.1769C11.8573 10.8163 11.8979 10.4099 11.8055 10.0234C11.7132 9.63684 11.4932 9.29272 11.1812 9.04656C10.8692 8.8004 10.4834 8.66657 10.086 8.66668Z" fill="black"/>
<path d="M26.1836 8.57617V9.56055H24.625V13.8672C24.6182 14.8174 25.0967 14.9746 25.5957 14.9746C25.8076 14.9746 26.1221 14.9541 26.293 14.9473V16.041C26.1084 16.0684 25.8213 16.0957 25.4727 16.0957C24.4814 16.0957 23.4424 15.4805 23.4355 14.168V9.56055H22.3145V8.57617H23.4355V6.79883H24.625V8.57617H26.1836ZM30.7363 16.1504C28.5898 16.1572 27.2637 14.626 27.2637 12.3496C27.2637 10.0664 28.6104 8.48047 30.627 8.48047C32.1855 8.48047 33.833 9.4375 33.8262 12.1855V12.6777H28.4395C28.501 14.25 29.417 15.1113 30.7363 15.1113C31.625 15.1113 32.1855 14.7217 32.459 14.2637H33.7168C33.3682 15.3916 32.2676 16.1572 30.7363 16.1504ZM28.4463 11.6797H32.6367C32.6299 10.4424 31.8506 9.51953 30.627 9.51953C29.3418 9.51953 28.5283 10.5312 28.4463 11.6797ZM36.0547 8.57617L37.8047 11.5977L39.5684 8.57617H40.9219L38.5293 12.2812L40.9219 16H39.582L37.8047 13.1289L36.0547 16H34.7012L37.0391 12.2812L34.7012 8.57617H36.0547ZM45.584 8.57617V9.56055H44.0254V13.8672C44.0186 14.8174 44.4971 14.9746 44.9961 14.9746C45.208 14.9746 45.5225 14.9541 45.6934 14.9473V16.041C45.5088 16.0684 45.2217 16.0957 44.873 16.0957C43.8818 16.0957 42.8428 15.4805 42.8359 14.168V9.56055H41.7148V8.57617H42.8359V6.79883H44.0254V8.57617H45.584Z" fill="black"/>
</svg>
