<svg width="53" height="22" viewBox="0 0 53 22" fill="none" xmlns="http://www.w3.org/2000/svg">
<path d="M2.91677 8.66667C2.91693 7.8766 3.12133 7.09998 3.51012 6.41219C3.89891 5.7244 4.45889 5.14879 5.13572 4.74122C5.81255 4.33365 6.58324 4.10796 7.37301 4.08605C8.16278 4.06414 8.9448 4.24676 9.64318 4.61618C10.3416 4.98561 10.9326 5.52929 11.3589 6.19447C11.7852 6.85964 12.0324 7.62373 12.0763 8.41258C12.1203 9.20143 11.9596 9.98824 11.6098 10.6967C11.2601 11.4051 10.7331 12.0111 10.0801 12.4558C11.4864 12.9716 12.7061 13.8964 13.5823 15.1113C14.4585 16.3261 14.9511 17.7753 14.9968 19.2725C14.9948 19.4339 14.9306 19.5883 14.8175 19.7035C14.7044 19.8187 14.5511 19.8857 14.3897 19.8905C14.2284 19.8954 14.0714 19.8377 13.9516 19.7295C13.8318 19.6213 13.7584 19.471 13.7468 19.31C13.6971 17.6862 13.0172 16.1456 11.8511 15.0145C10.6849 13.8835 9.12423 13.2509 7.49969 13.2509C5.87514 13.2509 4.31443 13.8835 3.14829 15.0145C1.98215 16.1456 1.30223 17.6862 1.2526 19.31C1.24426 19.4732 1.17233 19.6266 1.05224 19.7374C0.932137 19.8482 0.773418 19.9076 0.61008 19.9028C0.446743 19.898 0.291779 19.8295 0.178387 19.7118C0.0649947 19.5941 0.00219305 19.4367 0.00343608 19.2733C0.0488955 17.776 0.541442 16.3266 1.41767 15.1116C2.29391 13.8966 3.51372 12.9717 4.9201 12.4558C4.30246 12.0355 3.79701 11.4705 3.44783 10.8101C3.09864 10.1496 2.91633 9.41375 2.91677 8.66667ZM7.5001 5.33333C6.61605 5.33333 5.7682 5.68452 5.14308 6.30964C4.51796 6.93477 4.16677 7.78261 4.16677 8.66667C4.16677 9.55072 4.51796 10.3986 5.14308 11.0237C5.7682 11.6488 6.61605 12 7.5001 12C8.38416 12 9.232 11.6488 9.85713 11.0237C10.4822 10.3986 10.8334 9.55072 10.8334 8.66667C10.8334 7.78261 10.4822 6.93477 9.85713 6.30964C9.232 5.68452 8.38416 5.33333 7.5001 5.33333ZM14.4084 8.66667C14.2851 8.66667 14.1651 8.675 14.0468 8.69167C13.9642 8.70646 13.8794 8.70446 13.7976 8.68579C13.7157 8.66712 13.6385 8.63216 13.5705 8.58299C13.5025 8.53382 13.445 8.47146 13.4016 8.39962C13.3582 8.32778 13.3298 8.24793 13.3179 8.16484C13.306 8.08175 13.311 7.99712 13.3326 7.916C13.3541 7.83489 13.3918 7.75894 13.4433 7.69269C13.4948 7.62644 13.5592 7.57126 13.6325 7.53042C13.7058 7.48958 13.7866 7.46393 13.8701 7.455C14.6989 7.33517 15.544 7.49433 16.2725 7.90744C17.0009 8.32054 17.5713 8.96414 17.8939 9.73694C18.2165 10.5097 18.273 11.3679 18.0545 12.1763C17.8359 12.9847 17.3548 13.6975 16.6868 14.2025C17.6688 14.6422 18.5025 15.3567 19.0875 16.2597C19.6725 17.1627 19.9836 18.2157 19.9834 19.2917C19.9834 19.4574 19.9176 19.6164 19.8004 19.7336C19.6832 19.8508 19.5242 19.9167 19.3584 19.9167C19.1927 19.9167 19.0337 19.8508 18.9165 19.7336C18.7993 19.6164 18.7334 19.4574 18.7334 19.2917C18.7333 18.3618 18.4337 17.4567 17.879 16.7104C17.3242 15.9641 16.5438 15.4164 15.6534 15.1483L15.2084 15.015V13.6183L15.5501 13.4442C16.0566 13.1876 16.4618 12.7679 16.7004 12.2527C16.9389 11.7375 16.9969 11.157 16.865 10.6048C16.733 10.0526 16.4188 9.56101 15.9731 9.20936C15.5274 8.8577 14.9762 8.66652 14.4084 8.66667Z" fill="black"/>
<path d="M32.1836 8.57617V9.56055H30.625V13.8672C30.6182 14.8174 31.0967 14.9746 31.5957 14.9746C31.8076 14.9746 32.1221 14.9541 32.293 14.9473V16.041C32.1084 16.0684 31.8213 16.0957 31.4727 16.0957C30.4814 16.0957 29.4424 15.4805 29.4355 14.168V9.56055H28.3145V8.57617H29.4355V6.79883H30.625V8.57617H32.1836ZM36.7363 16.1504C34.5898 16.1572 33.2637 14.626 33.2637 12.3496C33.2637 10.0664 34.6104 8.48047 36.627 8.48047C38.1855 8.48047 39.833 9.4375 39.8262 12.1855V12.6777H34.4395C34.501 14.25 35.417 15.1113 36.7363 15.1113C37.625 15.1113 38.1855 14.7217 38.459 14.2637H39.7168C39.3682 15.3916 38.2676 16.1572 36.7363 16.1504ZM34.4463 11.6797H38.6367C38.6299 10.4424 37.8506 9.51953 36.627 9.51953C35.3418 9.51953 34.5283 10.5312 34.4463 11.6797ZM42.0547 8.57617L43.8047 11.5977L45.5684 8.57617H46.9219L44.5293 12.2812L46.9219 16H45.582L43.8047 13.1289L42.0547 16H40.7012L43.0391 12.2812L40.7012 8.57617H42.0547ZM51.584 8.57617V9.56055H50.0254V13.8672C50.0186 14.8174 50.4971 14.9746 50.9961 14.9746C51.208 14.9746 51.5225 14.9541 51.6934 14.9473V16.041C51.5088 16.0684 51.2217 16.0957 50.873 16.0957C49.8818 16.0957 48.8428 15.4805 48.8359 14.168V9.56055H47.7148V8.57617H48.8359V6.79883H50.0254V8.57617H51.584Z" fill="black"/>
</svg>
