<svg width="35" height="17" viewBox="0 0 35 17" fill="none" xmlns="http://www.w3.org/2000/svg">
<path d="M2.04179 6.16668C2.0419 5.61363 2.18498 5.07 2.45713 4.58855C2.72928 4.10709 3.12127 3.70417 3.59505 3.41887C4.06883 3.13357 4.60832 2.97558 5.16115 2.96025C5.71399 2.94491 6.26141 3.07275 6.75027 3.33134C7.23914 3.58994 7.65286 3.97051 7.95129 4.43614C8.24971 4.90176 8.42271 5.43662 8.45348 5.98882C8.48426 6.54101 8.37177 7.09178 8.12693 7.58769C7.8821 8.08359 7.51323 8.50778 7.05612 8.8191C8.0405 9.18014 8.8943 9.82751 9.50766 10.6779C10.121 11.5283 10.4659 12.5427 10.4978 13.5908C10.4964 13.7038 10.4515 13.8119 10.3723 13.8925C10.2931 13.9731 10.1858 14.02 10.0729 14.0234C9.95992 14.0268 9.85003 13.9864 9.76616 13.9107C9.68228 13.8349 9.63092 13.7297 9.62279 13.617C9.58805 12.4804 9.1121 11.4019 8.2958 10.6102C7.47951 9.81844 6.38701 9.37566 5.24983 9.37566C4.11265 9.37566 3.02015 9.81844 2.20385 10.6102C1.38756 11.4019 0.911608 12.4804 0.876871 13.617C0.87103 13.7312 0.820682 13.8387 0.736614 13.9162C0.652545 13.9938 0.541441 14.0353 0.427105 14.032C0.312769 14.0286 0.204294 13.9806 0.12492 13.8983C0.0455451 13.8159 0.00158396 13.7057 0.00245408 13.5913C0.0342757 12.5432 0.379058 11.5286 0.992421 10.6781C1.60578 9.82764 2.45965 9.18018 3.44412 8.8191C3.01177 8.52488 2.65796 8.12938 2.41353 7.66705C2.1691 7.20473 2.04148 6.68964 2.04179 6.16668ZM5.25012 3.83335C4.63128 3.83335 4.03779 4.07918 3.6002 4.51676C3.16262 4.95435 2.91679 5.54784 2.91679 6.16668C2.91679 6.78552 3.16262 7.37901 3.6002 7.8166C4.03779 8.25418 4.63128 8.50001 5.25012 8.50001C5.86896 8.50001 6.46245 8.25418 6.90004 7.8166C7.33762 7.37901 7.58345 6.78552 7.58345 6.16668C7.58345 5.54784 7.33762 4.95435 6.90004 4.51676C6.46245 4.07918 5.86896 3.83335 5.25012 3.83335ZM10.086 6.16668C9.99962 6.16668 9.91562 6.17251 9.83279 6.18418C9.77495 6.19453 9.71563 6.19314 9.65835 6.18007C9.60107 6.167 9.54701 6.14252 9.49939 6.1081C9.45177 6.07369 9.41158 6.03003 9.3812 5.97974C9.35082 5.92946 9.33088 5.87356 9.32257 5.8154C9.31426 5.75724 9.31775 5.698 9.33284 5.64122C9.34792 5.58443 9.37428 5.53127 9.41036 5.48489C9.44643 5.43852 9.49148 5.39989 9.54281 5.3713C9.59414 5.34272 9.6507 5.32476 9.70912 5.31851C10.2893 5.23463 10.8809 5.34604 11.3908 5.63522C11.9007 5.92439 12.3 6.37491 12.5258 6.91587C12.7516 7.45683 12.7912 8.05752 12.6382 8.62341C12.4852 9.1893 12.1484 9.68826 11.6808 10.0418C12.3682 10.3496 12.9518 10.8497 13.3613 11.4818C13.7708 12.1139 13.9886 12.851 13.9885 13.6042C13.9885 13.7202 13.9424 13.8315 13.8603 13.9135C13.7783 13.9956 13.667 14.0417 13.551 14.0417C13.4349 14.0417 13.3236 13.9956 13.2416 13.9135C13.1595 13.8315 13.1135 13.7202 13.1135 13.6042C13.1134 12.9533 12.9037 12.3197 12.5153 11.7973C12.127 11.2749 11.5807 10.8915 10.9575 10.7038L10.646 10.6105V9.63285L10.8851 9.51093C11.2396 9.33135 11.5233 9.03753 11.6903 8.6769C11.8573 8.31628 11.8979 7.9099 11.8055 7.52337C11.7132 7.13684 11.4932 6.79272 11.1812 6.54656C10.8692 6.3004 10.4834 6.16657 10.086 6.16668Z" fill="#B1B4C3"/>
<path d="M19.1386 6.43054V7.16903H17.9693V10.3999C17.9642 11.1128 18.3232 11.2307 18.6975 11.2307C18.8565 11.2307 19.0924 11.2154 19.2206 11.2102V12.0308C19.0822 12.0513 18.8668 12.0718 18.6052 12.0718C17.8616 12.0718 17.0821 11.6102 17.077 10.6256V7.16903H16.2359V6.43054H17.077V5.09715H17.9693V6.43054H19.1386ZM22.5541 12.1128C20.9438 12.118 19.9489 10.9692 19.9489 9.26142C19.9489 7.54853 20.9592 6.35874 22.4721 6.35874C23.6413 6.35874 24.8773 7.07672 24.8722 9.13834V9.50759H20.831C20.8771 10.6871 21.5643 11.3333 22.5541 11.3333C23.2208 11.3333 23.6413 11.041 23.8465 10.6974H24.7901C24.5286 11.5436 23.7029 12.118 22.5541 12.1128ZM20.8361 8.75884H23.9798C23.9747 7.8306 23.3901 7.13826 22.4721 7.13826C21.5079 7.13826 20.8976 7.89727 20.8361 8.75884ZM26.544 6.43054L27.8569 8.6973L29.18 6.43054H30.1955L28.4005 9.21014L30.1955 12H29.1903L27.8569 9.84606L26.544 12H25.5286L27.2825 9.21014L25.5286 6.43054H26.544ZM33.693 6.43054V7.16903H32.5238V10.3999C32.5186 11.1128 32.8776 11.2307 33.252 11.2307C33.411 11.2307 33.6469 11.2154 33.7751 11.2102V12.0308C33.6366 12.0513 33.4212 12.0718 33.1597 12.0718C32.4161 12.0718 31.6365 11.6102 31.6314 10.6256V7.16903H30.7904V6.43054H31.6314V5.09715H32.5238V6.43054H33.693Z" fill="#B1B4C3"/>
</svg>
