<svg width="50" height="17" viewBox="0 0 50 17" fill="none" xmlns="http://www.w3.org/2000/svg">
<rect width="50" height="17" rx="4" fill="#C4C7D2"/>
<path d="M4.70772 12V6.43054H5.58981V12H4.70772ZM4.53336 4.92278C4.52823 4.59456 4.81029 4.33301 5.14877 4.33814C5.48724 4.33301 5.7693 4.59456 5.77443 4.92278C5.7693 5.24587 5.48724 5.50742 5.14877 5.50742C4.81029 5.50742 4.52823 5.24587 4.53336 4.92278ZM9.27201 12.1128C7.69246 12.118 6.72832 10.9128 6.72832 9.24091C6.72832 7.54853 7.73862 6.35874 9.2515 6.35874C10.4362 6.35874 11.3285 7.06133 11.467 8.11266H10.5849C10.4567 7.60495 10.0156 7.13826 9.27201 7.13826C8.2771 7.13826 7.61553 7.95881 7.61041 9.21014C7.61553 10.4974 8.26172 11.323 9.27201 11.323C9.92845 11.323 10.431 10.9692 10.5849 10.3589H11.467C11.3285 11.3538 10.508 12.118 9.27201 12.1128ZM14.8312 12.1128C13.3132 12.118 12.2875 10.9692 12.2875 9.24091C12.2875 7.50238 13.3132 6.35874 14.8312 6.35874C16.3441 6.35874 17.3595 7.50238 17.3544 9.24091C17.3595 10.9692 16.3441 12.118 14.8312 12.1128ZM13.1696 9.24091C13.1747 10.3538 13.6978 11.3333 14.8312 11.3333C15.9543 11.3333 16.4723 10.3538 16.4723 9.24091C16.4723 8.13317 15.9543 7.13826 14.8312 7.13826C13.6978 7.13826 13.1747 8.13317 13.1696 9.24091ZM19.3955 8.65627V12H18.5134V6.43054H19.3647V7.30237H19.4365C19.6981 6.73311 20.2212 6.35874 21.0674 6.35874C22.1956 6.35874 22.9495 7.04595 22.9444 8.46139V12H22.0623V8.52293C22.0623 7.66136 21.5905 7.14852 20.8007 7.14852C19.9904 7.14852 19.3955 7.69213 19.3955 8.65627Z" fill="white"/>
<path d="M29.4053 6.93054V7.93571H28.3078V10.8281C28.3078 11.3615 28.5745 11.4692 28.9027 11.4743C29.0565 11.4794 29.313 11.4641 29.4771 11.4538V12.5205C29.3232 12.5462 29.0719 12.5769 28.7386 12.5718C27.7539 12.5769 26.9949 12.0897 27.0052 11.0435V7.93571H26.2051V6.93054H27.0052V5.59715H28.3078V6.93054H29.4053ZM32.8208 12.6128C31.1438 12.6128 30.113 11.4948 30.113 9.75117C30.113 8.02802 31.1592 6.85874 32.749 6.85874C34.1132 6.85874 35.2927 7.71519 35.2927 9.66911V10.0794H31.4054C31.4259 11.0281 31.9849 11.5923 32.8311 11.5871C33.4054 11.5923 33.7901 11.3461 33.9593 11.0128H35.2414C35.0055 11.9769 34.1132 12.6128 32.8208 12.6128ZM31.4105 9.18704H34.0414C34.0362 8.42804 33.5234 7.87417 32.7695 7.87417C31.9849 7.87417 31.4566 8.47932 31.4105 9.18704ZM37.262 6.93054L38.3903 8.99216L39.539 6.93054H40.9237L39.2416 9.71014L40.9545 12.5H39.5801L38.3903 10.4897L37.2312 12.5H35.8363L37.5389 9.71014L35.8773 6.93054H37.262ZM44.6264 6.93054V7.93571H43.5289V10.8281C43.5289 11.3615 43.7956 11.4692 44.1238 11.4743C44.2777 11.4794 44.5341 11.4641 44.6982 11.4538V12.5205C44.5444 12.5462 44.2931 12.5769 43.9597 12.5718C42.9751 12.5769 42.2161 12.0897 42.2263 11.0435V7.93571H41.4263V6.93054H42.2263V5.59715H43.5289V6.93054H44.6264Z" fill="white"/>
</svg>
