<svg width="49" height="45" viewBox="0 0 49 45" fill="none" xmlns="http://www.w3.org/2000/svg">
<rect width="49" height="45" rx="10" fill="#373F67"/>
<path d="M16.8535 18.4961C16.8535 19.8496 17.8516 21.1484 19.793 21.6816L19.0957 22.8848C17.6807 22.4951 16.6758 21.6543 16.1152 20.6016C15.5752 21.7979 14.5498 22.7412 13.0938 23.1855L12.3555 21.9961C14.2969 21.4355 15.3359 20.0137 15.3359 18.4961V18.4414H12.752V17.2383H15.3359V15.8027H16.8672V17.2383H19.4375V18.4414H16.8535V18.4961ZM22.1582 15.8574V18.8789H23.8809V20.123H22.1582V23.3496H20.6406V15.8574H22.1582ZM18.1387 23.6094C20.709 23.6094 22.2676 24.4434 22.2812 25.9062C22.2676 27.3555 20.709 28.1895 18.1387 28.1895C15.541 28.1895 13.9551 27.3555 13.9551 25.9062C13.9551 24.4434 15.541 23.6094 18.1387 23.6094ZM18.1387 24.7852C16.4297 24.7852 15.4727 25.1543 15.4727 25.9062C15.4727 26.6445 16.4297 27.0273 18.1387 27.0273C19.834 27.0273 20.7773 26.6445 20.7773 25.9062C20.7773 25.1543 19.834 24.7852 18.1387 24.7852ZM34.1895 15.8574V20.6836H36.0215V21.9551H34.1895V28.1895H32.6719V15.8574H34.1895ZM30.9219 17.1426C30.9219 20.7793 29.418 23.9648 25.3027 25.9883L24.4414 24.8125C27.4492 23.3154 29.0762 21.21 29.3906 18.4004H25.1113V17.1426H30.9219Z" fill="white"/>
</svg>
