<svg width="73" height="45" viewBox="0 0 73 45" fill="none" xmlns="http://www.w3.org/2000/svg">
<rect width="73" height="45" rx="10" fill="#373F67"/>
<path d="M22.0898 15.8574V20.5605H23.9902V21.8457H22.0898V28.2168H20.5723V15.8574H22.0898ZM14.3516 16.8691V19.959H17.2637V16.8691H18.7812V25.3184H12.8477V16.8691H14.3516ZM14.3516 24.0742H17.2637V21.1484H14.3516V24.0742ZM29.541 17.2793V18.4824H26.3691V20.6016H29.0215V21.7773H26.3691V24.1699C27.8389 24.1562 28.8506 24.0879 30.0605 23.8828L30.1973 25.0996C28.7754 25.373 27.5996 25.4004 25.7266 25.4004H24.9199V17.2793H29.541ZM35.1738 15.8574V28.2168H33.6973V15.8574H35.1738ZM32.5762 16.1035V27.6152H31.1543V21.6543H29.623V20.4238H31.1543V16.1035H32.5762ZM46.8906 15.8574V28.2305H45.3594V15.8574H46.8906ZM40.2324 16.7598C42.0918 16.7598 43.4453 18.4551 43.459 21.1211C43.4453 23.8145 42.0918 25.4961 40.2324 25.4961C38.3594 25.4961 37.0059 23.8145 37.0059 21.1211C37.0059 18.4551 38.3594 16.7598 40.2324 16.7598ZM40.2324 18.127C39.1797 18.127 38.4688 19.2344 38.4688 21.1211C38.4688 23.0215 39.1797 24.1289 40.2324 24.1289C41.2715 24.1289 41.9824 23.0215 41.9824 21.1211C41.9824 19.2344 41.2715 18.127 40.2324 18.127ZM51.6758 16.0762V17.0469H57.0078V16.0762H58.5117V20.2051H50.1719V16.0762H51.6758ZM51.6758 19.0566H57.0078V18.1543H51.6758V19.0566ZM59.9746 20.998V22.1875H48.709V20.998H59.9746ZM58.5664 23.0625V26.043H51.5391V26.9453H58.9082V28.1074H50.0488V24.9766H57.0762V24.1836H50.0352V23.0625H58.5664Z" fill="white"/>
</svg>
