<svg width="14" height="15" viewBox="0 0 14 15" fill="none" xmlns="http://www.w3.org/2000/svg">
<path d="M2.04179 5.16668C2.0419 4.61363 2.18498 4.07 2.45713 3.58855C2.72928 3.10709 3.12127 2.70417 3.59505 2.41887C4.06883 2.13357 4.60832 1.97558 5.16115 1.96025C5.71399 1.94491 6.26141 2.07275 6.75027 2.33134C7.23914 2.58994 7.65286 2.97051 7.95129 3.43614C8.24971 3.90176 8.42271 4.43662 8.45348 4.98882C8.48426 5.54101 8.37177 6.09178 8.12693 6.58768C7.8821 7.08359 7.51323 7.50778 7.05612 7.8191C8.0405 8.18014 8.8943 8.82751 9.50766 9.67789C10.121 10.5283 10.4659 11.5427 10.4978 12.5908C10.4964 12.7038 10.4515 12.8119 10.3723 12.8925C10.2931 12.9731 10.1858 13.02 10.0729 13.0234C9.95992 13.0268 9.85003 12.9864 9.76616 12.9107C9.68228 12.8349 9.63092 12.7297 9.62279 12.617C9.58805 11.4804 9.1121 10.4019 8.2958 9.61017C7.47951 8.81844 6.38701 8.37566 5.24983 8.37566C4.11265 8.37566 3.02015 8.81844 2.20385 9.61017C1.38756 10.4019 0.911608 11.4804 0.876871 12.617C0.87103 12.7312 0.820682 12.8387 0.736614 12.9162C0.652545 12.9938 0.541441 13.0353 0.427105 13.032C0.312769 13.0286 0.204294 12.9806 0.12492 12.8983C0.0455451 12.8159 0.00158396 12.7057 0.00245408 12.5913C0.0342757 11.5432 0.379058 10.5286 0.992421 9.67813C1.60578 8.82764 2.45965 8.18018 3.44412 7.8191C3.01177 7.52488 2.65796 7.12938 2.41353 6.66705C2.1691 6.20473 2.04148 5.68964 2.04179 5.16668ZM5.25012 2.83335C4.63128 2.83335 4.03779 3.07918 3.6002 3.51676C3.16262 3.95435 2.91679 4.54784 2.91679 5.16668C2.91679 5.78552 3.16262 6.37901 3.6002 6.8166C4.03779 7.25418 4.63128 7.50001 5.25012 7.50001C5.86896 7.50001 6.46245 7.25418 6.90004 6.8166C7.33762 6.37901 7.58345 5.78552 7.58345 5.16668C7.58345 4.54784 7.33762 3.95435 6.90004 3.51676C6.46245 3.07918 5.86896 2.83335 5.25012 2.83335ZM10.086 5.16668C9.99962 5.16668 9.91562 5.17251 9.83279 5.18418C9.77495 5.19453 9.71563 5.19314 9.65835 5.18007C9.60107 5.167 9.54701 5.14252 9.49939 5.1081C9.45177 5.07369 9.41158 5.03003 9.3812 4.97974C9.35082 4.92946 9.33088 4.87356 9.32257 4.8154C9.31426 4.75724 9.31775 4.698 9.33284 4.64122C9.34792 4.58443 9.37428 4.53127 9.41036 4.4849C9.44644 4.43852 9.49148 4.39989 9.54281 4.3713C9.59414 4.34272 9.6507 4.32476 9.70912 4.31851C10.2893 4.23463 10.8809 4.34604 11.3908 4.63522C11.9007 4.92439 12.3 5.37491 12.5258 5.91587C12.7516 6.45683 12.7912 7.05752 12.6382 7.62341C12.4852 8.1893 12.1484 8.68826 11.6808 9.04176C12.3682 9.34955 12.9518 9.84968 13.3613 10.4818C13.7708 11.1139 13.9886 11.851 13.9885 12.6042C13.9885 12.7202 13.9424 12.8315 13.8603 12.9135C13.7783 12.9956 13.667 13.0417 13.551 13.0417C13.4349 13.0417 13.3236 12.9956 13.2416 12.9135C13.1595 12.8315 13.1135 12.7202 13.1135 12.6042C13.1134 11.9533 12.9037 11.3197 12.5153 10.7973C12.127 10.2749 11.5807 9.89149 10.9575 9.70385L10.646 9.61051V8.63285L10.8851 8.51093C11.2396 8.33135 11.5233 8.03753 11.6903 7.6769C11.8573 7.31628 11.8979 6.9099 11.8055 6.52337C11.7132 6.13684 11.4932 5.79272 11.1812 5.54656C10.8692 5.3004 10.4834 5.16657 10.086 5.16668Z" fill="#B1B4C3"/>
</svg>
