<svg width="79" height="38" viewBox="0 0 79 38" fill="none" xmlns="http://www.w3.org/2000/svg">
<rect width="79" height="38" rx="19" fill="#EBECF0"/>
<path d="M16.1836 16.5762V17.5605H14.625V21.8672C14.6182 22.8174 15.0967 22.9746 15.5957 22.9746C15.8076 22.9746 16.1221 22.9541 16.293 22.9473V24.041C16.1084 24.0684 15.8213 24.0957 15.4727 24.0957C14.4814 24.0957 13.4424 23.4805 13.4355 22.168V17.5605H12.3145V16.5762H13.4355V14.7988H14.625V16.5762H16.1836ZM20.7363 24.1504C18.5898 24.1572 17.2637 22.626 17.2637 20.3496C17.2637 18.0664 18.6104 16.4805 20.627 16.4805C22.1855 16.4805 23.833 17.4375 23.8262 20.1855V20.6777H18.4395C18.501 22.25 19.417 23.1113 20.7363 23.1113C21.625 23.1113 22.1855 22.7217 22.459 22.2637H23.7168C23.3682 23.3916 22.2676 24.1572 20.7363 24.1504ZM18.4463 19.6797H22.6367C22.6299 18.4424 21.8506 17.5195 20.627 17.5195C19.3418 17.5195 18.5283 18.5312 18.4463 19.6797ZM26.0547 16.5762L27.8047 19.5977L29.5684 16.5762H30.9219L28.5293 20.2812L30.9219 24H29.582L27.8047 21.1289L26.0547 24H24.7012L27.0391 20.2812L24.7012 16.5762H26.0547ZM35.584 16.5762V17.5605H34.0254V21.8672C34.0186 22.8174 34.4971 22.9746 34.9961 22.9746C35.208 22.9746 35.5225 22.9541 35.6934 22.9473V24.041C35.5088 24.0684 35.2217 24.0957 34.873 24.0957C33.8818 24.0957 32.8428 23.4805 32.8359 22.168V17.5605H31.7148V16.5762H32.8359V14.7988H34.0254V16.5762H35.584Z" fill="#9DA1B4"/>
<path fill-rule="evenodd" clip-rule="evenodd" d="M56.9998 10.2916C54.9555 10.2916 52.9948 11.1038 51.5492 12.5493C50.1036 13.9949 49.2915 15.9556 49.2915 18C49.2915 20.0443 50.1036 22.005 51.5492 23.4506C52.9948 24.8962 54.9555 25.7083 56.9998 25.7083C59.0442 25.7083 61.0049 24.8962 62.4505 23.4506C63.896 22.005 64.7082 20.0443 64.7082 18C64.7082 15.9556 63.896 13.9949 62.4505 12.5493C61.0049 11.1038 59.0442 10.2916 56.9998 10.2916ZM48.0415 18C48.0415 13.0525 52.0523 9.04163 56.9998 9.04163C61.9473 9.04163 65.9582 13.0525 65.9582 18C65.9582 22.9475 61.9473 26.9583 56.9998 26.9583C52.0523 26.9583 48.0415 22.9475 48.0415 18ZM53.9973 20.9608C54.0463 20.8948 54.1077 20.8391 54.1782 20.7969C54.2487 20.7547 54.3268 20.7268 54.4081 20.7148C54.4893 20.7028 54.5722 20.707 54.6518 20.727C54.7315 20.747 54.8064 20.7826 54.8723 20.8316C55.479 21.2816 56.2115 21.5416 56.9998 21.5416C57.7882 21.5416 58.5207 21.2808 59.1273 20.8316C59.193 20.7805 59.2683 20.743 59.3487 20.7214C59.4291 20.6997 59.513 20.6944 59.5955 20.7056C59.678 20.7168 59.7575 20.7444 59.8291 20.7868C59.9008 20.8292 59.9633 20.8854 60.013 20.9523C60.0626 21.0191 60.0984 21.0952 60.1182 21.1761C60.138 21.257 60.1415 21.341 60.1284 21.4232C60.1153 21.5054 60.0859 21.5842 60.0419 21.6549C59.9979 21.7256 59.9403 21.7868 59.8723 21.835C59.0429 22.4551 58.0354 22.7906 56.9998 22.7916C55.9643 22.7906 54.9567 22.4551 54.1273 21.835C53.9942 21.7363 53.9057 21.5887 53.8813 21.4248C53.8569 21.2609 53.8987 21.094 53.9973 20.9608Z" fill="#9DA1B4"/>
<path d="M60.3332 16.75C60.3332 17.44 59.9598 18 59.4998 18C59.0398 18 58.6665 17.44 58.6665 16.75C58.6665 16.06 59.0398 15.5 59.4998 15.5C59.9598 15.5 60.3332 16.06 60.3332 16.75ZM55.3332 16.75C55.3332 17.44 54.9598 18 54.4998 18C54.0398 18 53.6665 17.44 53.6665 16.75C53.6665 16.06 54.0398 15.5 54.4998 15.5C54.9598 15.5 55.3332 16.06 55.3332 16.75Z" fill="#9DA1B4"/>
</svg>
