<svg width="20" height="20" viewBox="0 0 20 20" fill="none" xmlns="http://www.w3.org/2000/svg">
<path d="M10.0001 12.4792C9.88897 12.4792 9.78119 12.4583 9.67675 12.4167C9.5723 12.375 9.48564 12.3195 9.41675 12.25L5.58341 8.41668C5.43064 8.2639 5.35425 8.06945 5.35425 7.83334C5.35425 7.59723 5.43064 7.40279 5.58341 7.25001C5.73619 7.09723 5.93064 7.02084 6.16675 7.02084C6.40286 7.02084 6.5973 7.09723 6.75008 7.25001L10.0001 10.5L13.2501 7.25001C13.4029 7.09723 13.5973 7.02084 13.8334 7.02084C14.0695 7.02084 14.264 7.09723 14.4167 7.25001C14.5695 7.40279 14.6459 7.59723 14.6459 7.83334C14.6459 8.06945 14.5695 8.2639 14.4167 8.41668L10.5834 12.25C10.5001 12.3333 10.4098 12.3925 10.3126 12.4275C10.2154 12.4625 10.1112 12.4797 10.0001 12.4792Z" fill="black"/>
</svg>
