<svg width="24" height="13" viewBox="0 0 24 13" fill="none" xmlns="http://www.w3.org/2000/svg">
<path d="M4.14258 0.890625C5.94727 0.890625 7.23242 1.89551 7.24609 3.37891C7.23242 4.60938 6.30957 5.53223 4.93555 5.78516V6.7832C5.96777 6.72168 7 6.63281 7.95703 6.49609L8.08008 7.60352C5.50977 8.06152 2.63867 8.11621 0.546875 8.10938L0.382812 6.89258C1.27148 6.89258 2.31055 6.88574 3.4043 6.85156V5.79199C1.98926 5.55273 1.0459 4.62988 1.05273 3.37891C1.0459 1.89551 2.33105 0.890625 4.14258 0.890625ZM2.07812 12.457V8.9707H3.5957V11.2266H10.6367V12.457H2.07812ZM2.47461 3.37891C2.46094 4.19238 3.1582 4.69824 4.14258 4.70508C5.13379 4.69824 5.80371 4.19238 5.81055 3.37891C5.80371 2.54492 5.13379 2.05273 4.14258 2.05273C3.1582 2.05273 2.46094 2.54492 2.47461 3.37891ZM8.68164 9.80469V0.371094H10.1992V4.36328H11.8672V5.62109H10.1992V9.80469H8.68164ZM23.8027 10.0234V11.2812H12.5098V10.0234H15.5039V7.98633H13.8496V3.95312H20.959V2.43555H13.8223V1.20508H22.4629V5.16992H15.3672V6.75586H22.75V7.98633H20.9453V10.0234H23.8027ZM16.9805 10.0234H19.4551V7.98633H16.9805V10.0234Z" fill="#9DA1B4"/>
</svg>
