<svg width="24" height="13" viewBox="0 0 24 13" fill="none" xmlns="http://www.w3.org/2000/svg">
<path d="M4.14258 1.39062C5.94727 1.39062 7.23242 2.39551 7.24609 3.87891C7.23242 5.10938 6.30957 6.03223 4.93555 6.28516V7.2832C5.96777 7.22168 7 7.13281 7.95703 6.99609L8.08008 8.10352C5.50977 8.56152 2.63867 8.61621 0.546875 8.60938L0.382812 7.39258C1.27148 7.39258 2.31055 7.38574 3.4043 7.35156V6.29199C1.98926 6.05273 1.0459 5.12988 1.05273 3.87891C1.0459 2.39551 2.33105 1.39062 4.14258 1.39062ZM2.07812 12.957V9.4707H3.5957V11.7266H10.6367V12.957H2.07812ZM2.47461 3.87891C2.46094 4.69238 3.1582 5.19824 4.14258 5.20508C5.13379 5.19824 5.80371 4.69238 5.81055 3.87891C5.80371 3.04492 5.13379 2.55273 4.14258 2.55273C3.1582 2.55273 2.46094 3.04492 2.47461 3.87891ZM8.68164 10.3047V0.871094H10.1992V4.86328H11.8672V6.12109H10.1992V10.3047H8.68164ZM23.8027 10.5234V11.7812H12.5098V10.5234H15.5039V8.48633H13.8496V4.45312H20.959V2.93555H13.8223V1.70508H22.4629V5.66992H15.3672V7.25586H22.75V8.48633H20.9453V10.5234H23.8027ZM16.9805 10.5234H19.4551V8.48633H16.9805V10.5234Z" fill="black"/>
</svg>
