<svg width="73" height="27" viewBox="0 0 73 27" fill="none" xmlns="http://www.w3.org/2000/svg">
<g clip-path="url(#clip0_6_94)">
<path d="M0 0H14.9241L17.2545 4.41228H5.29726V10.5464H14.6033L15.9289 12.7705L14.6033 14.9946H5.29726V22.0972H17.2545L15.3178 26.5455H0V0Z" fill="#699AFE"/>
<path d="M31.2255 26.5455C29.6532 26.5455 28.2543 26.3225 27.0287 25.8765C25.8032 25.4072 24.7511 24.6796 23.8724 23.6938C23.0169 22.708 22.3577 21.4405 21.8953 19.8914C21.456 18.3424 21.2363 16.4882 21.2363 14.329V0L26.3697 1.92979V14.7866C26.3697 16.1479 26.4737 17.2979 26.6819 18.2369C26.9131 19.1521 27.2368 19.8914 27.653 20.4547C28.0693 21.018 28.578 21.4288 29.1791 21.687C29.7804 21.9218 30.4625 22.0391 31.2255 22.0391C31.9886 22.0391 32.6708 21.9218 33.2719 21.687C33.8963 21.4288 34.4281 21.018 34.8674 20.4547C35.3067 19.8914 35.6421 19.1521 35.8734 18.2369C36.1046 17.2979 36.2202 16.1479 36.2202 14.7866V1.92979L41.1454 0V14.329C41.1454 16.4882 40.9258 18.3424 40.4864 19.8914C40.0471 21.4405 39.3997 22.708 38.5441 23.6938C37.6885 24.6796 36.648 25.4072 35.4225 25.8765C34.1969 26.3225 32.7979 26.5455 31.2255 26.5455Z" fill="#373E6A"/>
<path d="M43.8 0L49.1091 1.3286V25.2169L43.8 26.5455V0Z" fill="#373E6A"/>
<path d="M51.7637 1.3286L55.3216 0H59.3401C61.455 0 63.346 0.263063 65.013 0.789188C66.705 1.31531 68.1357 2.12841 69.3052 3.2285C70.4995 4.30466 71.4076 5.66781 72.0297 7.31793C72.6766 8.96806 73 10.9171 73 13.1651C73 15.3892 72.6766 17.3383 72.0297 19.0123C71.4076 20.6863 70.5119 22.0853 69.3425 23.2094C68.198 24.3094 66.8046 25.1464 65.1624 25.7204C63.5201 26.2704 61.6789 26.5455 59.6386 26.5455H55.7012L51.7637 25.2169V1.3286ZM59.0042 22.2767C60.298 22.2767 61.455 22.1093 62.4752 21.7744C63.5201 21.4157 64.4034 20.8776 65.1251 20.1602C65.8466 19.4188 66.3939 18.4742 66.7672 17.3263C67.1653 16.1784 67.3644 14.7913 67.3644 13.1651C67.3644 11.5389 67.1653 10.1638 66.7672 9.0398C66.3939 7.8919 65.8466 6.97117 65.1251 6.27764C64.4034 5.5602 63.5201 5.04603 62.4752 4.73514C61.455 4.40032 60.298 4.23292 59.0042 4.23292H57.2874V22.2767H59.0042Z" fill="#373E6A"/>
</g>
<defs>
<clipPath id="clip0_6_94">
<rect width="73" height="26.5455" fill="white"/>
</clipPath>
</defs>
</svg>
